# xmcd CD database file
#
# Track frame offsets:
#	150
#	15530
#	26404
#	40297
#	61909
#	75754
#	97945
#	113021
#	126718
#	140450
#	151105
#	163216
#	174117
#	189130
#	199374
#	213740
#	225730
#	238891
#
# Disc length: 3299 seconds
#
# Revision: 0
# Processed by: cddbd v1.5.2PL0 Copyright (c) Steve Scherf et al.
# Submitted via: CDex 1.51
#
DISCID=e60ce112
DTITLE=Willy Bogner - Im Memoriam
DYEAR=2008
DGENRE=Volkstümliche Schlager
TTITLE0=Das ewige Eis der Berge
TTITLE1=Bei Dir sein ist schön
TTITLE2=Schau mi net so an
TTITLE3=Mama geh bitte schau owa
TTITLE4=Und heute Nacht
TTITLE5=Tirol-Meedley
TTITLE6=Die Romantic ist Vergangenheit
TTITLE7=Du bist mein Morgenstern
TTITLE8=Hunderl im Stroh
TTITLE9=Wie a Sterndl am Himmel
TTITLE10=Wie a stückerl andere Welt
TTITLE11=Oh Heimat oh Heimat
TTITLE12=Feierabend
TTITLE13=Ja heut geht`s auf
TTITLE14=Der Paul und sein Gaul
TTITLE15=Was bist du für ne Frau
TTITLE16=Happy Tirol
TTITLE17=Das Karwendellied
EXTD=YEAR: 2008
EXTT0=
EXTT1=
EXTT2=
EXTT3=
EXTT4=
EXTT5=
EXTT6=
EXTT7=
EXTT8=
EXTT9=
EXTT10=
EXTT11=
EXTT12=
EXTT13=
EXTT14=
EXTT15=
EXTT16=
EXTT17=
PLAYORDER=
